<?xml version="1.0" encoding="UTF-8" standalone="no"?>
<svg
   xmlns:dc="http://purl.org/dc/elements/1.1/"
   xmlns:cc="http://creativecommons.org/ns#"
   xmlns:rdf="http://www.w3.org/1999/02/22-rdf-syntax-ns#"
   xmlns:svg="http://www.w3.org/2000/svg"
   xmlns="http://www.w3.org/2000/svg"
   id="svg8"
   version="1.1"
   viewBox="0 0 13.229166 13.229167"
   height="50"
   width="50">
  <g
     transform="translate(0,-283.77082)"
     id="layer1">
    <path
       id="path3713"
       transform="matrix(0.26458333,0,0,0.26458333,0,283.77082)"
       d="M 25 3 A 22 22 0 0 0 3 25 A 22 22 0 0 0 25 47 A 22 22 0 0 0 47 25 A 22 22 0 0 0 25 3 z M 25.039062 10.720703 C 29.759062 10.720703 32.880859 13.320234 32.880859 17.240234 C 32.880859 22.920234 26.439453 24.600938 26.439453 28.960938 L 26.439453 31.080078 L 23.400391 31.080078 L 23.400391 28.960938 C 23.400391 23.240938 29.480469 21.799609 29.480469 17.599609 C 29.480469 15.199609 27.519219 13.640625 24.199219 13.640625 C 22.199219 13.640625 20.040859 14.199297 17.880859 15.279297 L 17.119141 12.839844 C 19.479141 11.519844 22.399063 10.720703 25.039062 10.720703 z M 25.080078 34.160156 C 26.600078 34.160156 27.640625 35.240703 27.640625 36.720703 C 27.640625 38.200703 26.600078 39.279297 25.080078 39.279297 C 23.560078 39.279297 22.519531 38.200703 22.519531 36.720703 C 22.519531 35.240703 23.560078 34.160156 25.080078 34.160156 z "
       style="fill:#808080;stroke-width:1.1182915" />
  </g>
</svg>
