<?xml version="1.0" ?><svg data-name="Ebene 1" height="128" id="Ebene_1" viewBox="0 0 128 128" width="128" xmlns="http://www.w3.org/2000/svg"><defs><style>
      .cls-1 {
        fill: #9f6c79;
      }

      .cls-2 {
        fill: #8b4c5f;
      }

      .cls-3 {
        fill: #6c2140;
      }

      .cls-4 {
        fill: #7e3950;
      }

      .cls-5 {
        fill: #ad828c;
      }

      .cls-6 {
        fill: #915668;
      }

      .cls-7 {
        fill: #1d1d1b;
      }
    </style></defs><title/><g data-name="red cabbage" id="red_cabbage"><path class="cls-1" d="M52.9522,28.7439a38.3824,38.3824,0,0,1,9.8451,9.9249,40.1233,40.1233,0,0,0-5.7594,15.4679,40.0761,40.0761,0,0,0-23.1354-10.852A36.176,36.176,0,0,1,52.9522,28.7439Z"/><path class="cls-2" d="M94.1019,43.2861A39.9066,39.9066,0,0,0,64,63.0025a39.9794,39.9794,0,0,0-5.1741-7.0343,38.23,38.23,0,0,1,16.22-27.2256A36.1737,36.1737,0,0,1,94.1,43.2862Z"/><path class="cls-3" d="M64.58,101.9936A38.9911,38.9911,0,0,0,98.06,44.0142,38.99,38.99,0,0,0,64.58,101.9936Z"/><path class="cls-4" d="M63.4173,101.9936A38.9905,38.9905,0,0,0,29.9412,44.0112,38.9907,38.9907,0,0,0,63.4173,101.9936Z"/><path class="cls-4" d="M65.1223,100.8907c0.51-1.0212.96-2.068,1.3794-3.1258,0.3847-.1919.7921-0.4026,1.2539-0.6173,0.91-.4078,1.9-1.0764,3.0073-1.6921,0.5431-.3332,1.08-0.7274,1.6532-1.11a20.842,20.842,0,0,0,1.7311-1.2519l0.3484-.2744a19.4938,19.4938,0,0,1-.3557-1.9483q-0.1848-1.3093-.3663-2.5942c-0.1176-.8545-0.1446-1.71-0.2193-2.5431-0.1718-1.6665-.1362-3.2874-0.1618-4.8162-0.0215-1.5294.1311-2.9732,0.18-4.3022,0.0909-1.3282.2831-2.5369,0.3959-3.61,0.1-1.0752.3134-1.9958,0.4443-2.7584,0.2813-1.521.442-2.39,0.442-2.39s-0.0989.878-.2718,2.4146c-0.0766.7683-.2237,1.6942-0.2472,2.7707-0.0364,1.0741-.1421,2.2807-0.1388,3.6,0.0454,1.3195-.0053,2.7475.1229,4.2506,0.1324,1.5024.2084,3.0879,0.4928,4.706,0.1311,0.8092.2148,1.638,0.3889,2.4624q0.2644,1.234.5345,2.4946c0.0654,0.3613.162,0.7172,0.2607,1.0731l1.6881-1.5255c0.6152-.5236,1.1695-1.1283,1.7495-1.724,0.5713-.6033,1.187-1.1838,1.7169-1.8491l1.6634-1.9608,1.5472-2.0846c0.5381-.6835.9863-1.4273,1.4593-2.1528,0.4565-.7349.97-1.4355,1.3634-2.1976l1.2414-2.2288c0.4078-.7372.73-1.5052,1.0927-2.2406,0.7458-1.4639,1.2826-2.9577,1.849-4.3556,0.5628-1.4.9324-2.78,1.3621-4.0283,0.3893-1.26.6415-2.4448,0.9211-3.4825,0.2928-1.0362.4231-1.9646,0.5749-2.7217,0.2845-1.52.4471-2.3883,0.4471-2.3883s-0.1009.8781-.2773,2.4148c-0.098.7676-.1634,1.71-0.3827,2.7677-0.2061,1.0588-.3764,2.2708-0.6782,3.5674-0.3424,1.2851-.6192,2.71-1.0875,4.1664-0.4721,1.4543-.9126,3.0146-1.5648,4.5577-0.3154.7749-.5916,1.5848-0.9542,2.3675q-0.5491,1.1739-1.11,2.3733c-0.35.8126-.8237,1.5677-1.2413,2.3588-0.4341.782-.8452,1.5842-1.3494,2.33l-1.4522,2.2753q-0.7969,1.0875-1.5858,2.1638c-0.5064.7339-1.1033,1.3862-1.6582,2.0612-0.5637.6677-1.1042,1.3445-1.7106,1.9423l-1.74,1.81-0.9854.8972-0.7963.725c-0.27.2593-.55,0.4993-0.831,0.731-0.308.2541-.6179,0.4978-0.9222,0.7369-0.5842.4535-1.1326,0.9158-1.6915,1.3164-1.1557.76-2.1379,1.5266-3.1567,2.0824-0.1878.1056-.3689,0.211-0.5494,0.3159a37.81,37.81,0,0,1-3.782.33C65.1506,100.95,65.1379,100.92,65.1223,100.8907Z"/><path class="cls-3" d="M34.5265,65.4385c-0.3019-1.2966-.4722-2.5086-0.6783-3.5674-0.2193-1.0573-.2847-2-0.3827-2.7677l-0.2772-2.4148s0.1625,0.8684.447,2.3883c0.1517,0.7571.2821,1.6855,0.5749,2.7217,0.28,1.0377.5318,2.2224,0.9211,3.4825,0.43,1.2484.7993,2.6286,1.3621,4.0283,0.5664,1.3979,1.1032,2.8917,1.849,4.3556,0.3622,0.7354.6848,1.5034,1.0927,2.2406q0.6139,1.1025,1.2414,2.2288c0.393,0.7621.907,1.4627,1.3634,2.1976,0.4729,0.7255.9212,1.4693,1.4593,2.1528l1.5472,2.0846L46.71,86.53c0.53,0.6653,1.1457,1.2458,1.717,1.8491,0.58,0.5957,1.1344,1.2,1.7495,1.724l1.7587,1.5892L51.98,91.7279c0.11-.3885.2134-0.7775,0.2848-1.1722q0.27-1.2589.5346-2.4946c0.174-.8244.2577-1.6532,0.3888-2.4624,0.2844-1.6181.36-3.2036,0.4927-4.706,0.1283-1.5031.0777-2.9311,0.123-4.2506,0.0033-1.3189-.1023-2.5255-0.1388-3.6-0.0234-1.0765-.1706-2.0024-0.2472-2.7707L53.146,67.8572l0.4419,2.39c0.1309,0.7626.3445,1.6832,0.4443,2.7584,0.1129,1.0728.305,2.2815,0.3959,3.61,0.0489,1.329.2015,2.7728,0.18,4.3022-0.0256,1.5288.01,3.15-.1617,4.8162-0.0748.8333-.1018,1.6886-0.2194,2.5431q-0.1812,1.2832-.3663,2.5942a20.7518,20.7518,0,0,1-.3754,2.0427l0.2285,0.18a20.8253,20.8253,0,0,0,1.7311,1.2519c0.5734,0.3823,1.11.7765,1.6532,1.11,1.1072,0.6157,2.0976,1.2843,3.0073,1.6921,0.9258,0.43,1.633.8451,2.3761,1.1223l1.4109,0.5645q-0.4956,1.0849-1.0608,2.1448a37.8093,37.8093,0,0,1-3.96-.3538c-0.1676-.0972-0.3344-0.1946-0.5082-0.2922-1.0187-.5558-2.0009-1.3226-3.1565-2.0824-0.5591-.4006-1.1074-0.8629-1.6916-1.3164-0.2666-.21-0.5382-0.423-0.8086-0.6432-0.32-.26-0.6374-0.53-0.9446-0.8247l-0.6891-.6274L49.98,93.8443l-1.74-1.81c-0.6064-.5978-1.1469-1.2746-1.7106-1.9423-0.5549-.675-1.1517-1.3273-1.6582-2.0612q-0.7878-1.0747-1.5858-2.1638l-1.4522-2.2753c-0.5042-.7454-0.9153-1.5476-1.3494-2.33-0.4176-.7911-0.8911-1.5462-1.2413-2.3588q-0.56-1.1979-1.11-2.3733c-0.3627-.7827-0.6389-1.5926-0.9543-2.3675-0.6522-1.5431-1.0927-3.1034-1.5648-4.5577C35.1456,68.1488,34.8688,66.7236,34.5265,65.4385Z"/><g><path class="cls-5" d="M84.174,43.1267C83.0872,42.08,81.9461,41.22,80.95,40.3542c-1.0224-.8332-2.0263-1.511-2.8835-2.1591-0.851-.66-1.6629-1.1285-2.308-1.553l-2.0467-1.3095,2.1349,1.162c0.6749,0.3786,1.5245.7925,2.4226,1.3921,0.9044,0.5879,1.9643,1.2,3.0533,1.9657,1.0631,0.799,2.2807,1.59,3.4552,2.57,0.8459,0.71,1.7488,1.427,2.6321,2.2151-0.42.1225-.8338,0.2662-1.25,0.4024C85.4909,44.3766,84.8156,43.7476,84.174,43.1267Z"/><path class="cls-6" d="M46.6793,39.8525c1.089-.7658,2.149-1.3778,3.0533-1.9657,0.8981-.6,1.7477-1.0135,2.4226-1.3921l2.1349-1.162-2.0467,1.3095c-0.6451.4245-1.457,0.8932-2.308,1.553-0.8573.6481-1.861,1.3259-2.8835,2.1591-0.9963.8662-2.1374,1.7262-3.2243,2.7724-0.6386.6181-1.3107,1.2441-1.9766,1.9037-0.4192-.1377-0.8416-0.2643-1.2649-0.3881,0.8852-.79,1.79-1.509,2.638-2.22C44.3986,41.4422,45.6162,40.6515,46.6793,39.8525Z"/></g><path class="cls-5" d="M72.5706,28.0466A40.255,40.255,0,0,0,63.988,36.885a40.58,40.58,0,0,0-8.5645-8.8364A35.6562,35.6562,0,0,1,72.5706,28.0466Z"/><path class="cls-7" d="M29.0627,43.534a39.9908,39.9908,0,0,0,34.9347,59.4646l0.001-.0018L64,102.9985a39.9915,39.9915,0,0,0,34.9381-59.462,1.0168,1.0168,0,0,0-.904-0.5206c-0.5578.0114-1.1147,0.0367-1.6709,0.0688a38.0007,38.0007,0,0,0-64.7242-.0023c-0.5566-.0323-1.1138-0.0577-1.6721-0.0693A1.0172,1.0172,0,0,0,29.0627,43.534Zm23.8895-14.79a38.3824,38.3824,0,0,1,9.8451,9.9249,40.1249,40.1249,0,0,0-5.7594,15.4679,40.0758,40.0758,0,0,0-23.1354-10.852A36.1764,36.1764,0,0,1,52.9522,28.7439Zm11.0487-1.7424a35.8928,35.8928,0,0,1,8.57,1.0451A40.255,40.255,0,0,0,63.988,36.885a40.58,40.58,0,0,0-8.5645-8.8364A35.8986,35.8986,0,0,1,64.0009,27.0015ZM94.102,43.2861A39.9066,39.9066,0,0,0,64,63.0025a39.9794,39.9794,0,0,0-5.1741-7.0343,38.23,38.23,0,0,1,16.22-27.2256A36.1737,36.1737,0,0,1,94.1,43.2862Zm-28.98,57.6047a39.9522,39.9522,0,0,0,.0094-35.7654c0.2-.3745.3874-0.7537,0.6-1.1227A38.1418,38.1418,0,0,1,97.1482,45.04a0.5209,0.5209,0,0,1,.4786.2764A37.9886,37.9886,0,0,1,65.179,100.9789ZM30.3742,45.314a0.5209,0.5209,0,0,1,.4787-0.2764,37.9877,37.9877,0,0,1,31.9787,55.9417A37.9878,37.9878,0,0,1,30.3742,45.314Z"/></g></svg>