<?xml version="1.0" ?><!DOCTYPE svg  PUBLIC '-//W3C//DTD SVG 1.1//EN'  'http://www.w3.org/Graphics/SVG/1.1/DTD/svg11.dtd'><svg enable-background="new 0 0 128 128" height="128px" id="Layer_1" version="1.1" viewBox="0 0 128 128" width="128px" xml:space="preserve" xmlns="http://www.w3.org/2000/svg" xmlns:xlink="http://www.w3.org/1999/xlink"><g><path d="M47.532,118.349c-0.07,2.314-1.859,2.801-3.26,3.426c1.439,0.332,3.186,0.414,4.578,0.037   c-0.096,1.068-0.627,2.574-1.324,3.234c0.575-0.156,2.033-0.289,2.58-0.564c1.229-0.623,1.906-0.938,1.906-0.938   c0.207,0.496,0.743,1.949,0.496,3.474c1.196-0.566,2.637-1.753,2.699-2.737c0.503,1.059,0.782,2.288,1.521,3.038   c0.287-1.045,1.195-2.235,1.977-2.716c0.272,1.3,1.849,3.108,1.819,3.079c-0.058-1.014,1.562-2.325,2.256-2.896   c0.451,1.392,0.864,2.315,1.753,3.214c0.035-1.049,1.594-3.317,2.008-3.403c0.627,1.033,1.756,2.714,2.611,3.112   c0.029-0.9,0.783-2.659,1.252-3.354c0.861,1.432,2.016,2.558,3.246,2.847c-0.363-0.928,0.021-2.073,0.27-3.532   c1.055,1.322,1.936,1.961,3.287,2.45c-0.174-0.812-0.115-2.636,0.111-3.466c1.318,0.834,2.189,1.426,3.512,1.273   c-0.24-0.838-0.57-1.461-0.73-2.924c1.299,0.168,3.016,0.814,4.172,0.604c-1.459-1.176-2.221-2.555-2.84-3.913   c-1.779,0.245-3.723,0.841-5.529,1.229c-1.586,0.342-3.127,0.664-4.723,0.857c-3.373,0.41-6.688,0.746-10.149,0.582   c-2.209-0.104-4.358-0.215-6.545-0.65c-1.828-0.365-4.389,0.182-5.845-1.172L47.532,118.349z" fill="#6D261D"/><path d="M47.532,118.349c-0.071,2.314-1.859,2.801-3.261,3.426c1.44,0.332,3.187,0.414,4.579,0.037   c-0.096,1.068-0.628,2.574-1.324,3.234c0.575-0.156,2.033-0.289,2.58-0.564c1.228-0.623,1.906-0.938,1.906-0.938   c0.207,0.496,0.743,1.949,0.496,3.474c1.196-0.566,2.637-1.753,2.699-2.737c0.503,1.059,0.782,2.288,1.521,3.038   c0.287-1.045,1.195-2.235,1.977-2.716c0.272,1.3,1.849,3.108,1.819,3.079c-0.058-1.014,1.562-2.325,2.256-2.896   c0.451,1.392,0.864,2.315,1.753,3.214c0.034-1.049,1.593-3.317,2.007-3.403c0.628,1.033,1.757,2.714,2.611,3.112   c0.03-0.9,0.784-2.659,1.252-3.354c0.862,1.432,2.016,2.558,3.246,2.847c-0.363-0.928,0.022-2.073,0.27-3.532   c1.055,1.322,1.936,1.961,3.288,2.45c-0.174-0.812-0.115-2.636,0.11-3.466c1.319,0.834,2.19,1.426,3.512,1.273   c-0.239-0.838-0.57-1.461-0.73-2.924c1.299,0.168,3.017,0.814,4.173,0.604c-1.459-1.176-2.221-2.555-2.84-3.913   c-1.78,0.245-3.724,0.841-5.53,1.229c-1.585,0.342-3.127,0.664-4.723,0.857c-3.373,0.41-6.688,0.746-10.148,0.582   c-2.21-0.104-4.358-0.215-6.546-0.65c-1.828-0.365-4.388,0.182-5.844-1.172L47.532,118.349z" fill="#6D261D"/><path d="M64,121.985c-20.3,0-58-9.681-58-50.93C6,40.59,38.467,33.227,46.44,24.722   c8.632-9.21,7.343-15.986,7.511-19.01l4.248,6.251L63.678,0l6.443,10.742l4.283-7.251c0,0-0.64,14.932,8.445,22.818   C92.354,34.56,122,39.002,122,72.8C122,108.974,87.039,121.985,64,121.985z" fill="#B9005A"/><ellipse cx="56.759" cy="69.823" fill="#C12B69" rx="44.408" ry="35.387"/><ellipse cx="48.335" cy="63.083" fill="#C83C78" rx="20.448" ry="19.902"/><g opacity="0.2"><path d="M51.201,27.967c0.01-0.001-0.933,1.778-3.193,4.323c-1.124,1.273-2.568,2.734-4.316,4.272    c-1.735,1.559-3.851,3.101-5.979,4.802c-4.277,3.402-8.85,7.668-12.094,12.971c-1.631,2.634-2.916,5.499-3.8,8.453    c-0.888,2.955-1.368,5.997-1.546,8.971c-0.386,6.118,0.504,12.616,2.885,18.4c2.336,5.806,6.031,10.815,9.807,14.645    c3.779,3.852,7.584,6.595,10.359,8.37c2.785,1.777,4.562,2.6,4.559,2.6c0.002-0.002-1.913-0.594-4.976-2.08    c-3.052-1.488-7.273-3.881-11.589-7.554c-4.301-3.646-8.672-8.69-11.537-14.865c-2.92-6.143-4.117-13.267-3.698-19.764    c0.194-3.262,0.792-6.642,1.896-9.901c1.097-3.261,2.688-6.389,4.646-9.169c3.914-5.611,9.139-9.693,13.807-12.74    c2.355-1.543,4.555-2.821,6.404-4.155c1.866-1.315,3.443-2.582,4.691-3.702C50.038,29.609,51.211,27.969,51.201,27.967z" fill="#FFFFFF"/></g><g opacity="0.2"><path d="M55.901,26.917c-0.004-0.002-0.437,1.727-1.555,4.547c-0.562,1.409-1.299,3.089-2.281,4.933    c-0.973,1.855-2.264,3.821-3.665,5.869c-2.812,4.103-6.155,8.61-8.415,13.711c-2.313,5.076-3.42,10.706-3.618,16.083    c-0.214,5.53,0.21,11.425,1.501,16.918c1.265,5.505,3.422,10.601,5.905,14.719c2.472,4.135,5.216,7.296,7.317,9.356    c2.104,2.068,3.552,3.062,3.549,3.061c0.004,0-1.617-0.785-4.053-2.629c-2.428-1.836-5.672-4.759-8.703-8.837    c-3.045-4.048-5.807-9.278-7.516-15.045c-1.734-5.761-2.419-11.952-2.195-17.723c0.123-2.896,0.521-5.905,1.289-8.869    c0.763-2.961,1.893-5.865,3.316-8.539c2.84-5.387,6.733-9.698,9.924-13.44c1.605-1.883,3.059-3.624,4.211-5.297    c1.167-1.669,2.098-3.224,2.832-4.535C55.212,28.571,55.898,26.915,55.901,26.917z" fill="#FFFFFF"/></g><g opacity="0.2"><path d="M60.874,25.868c-0.002,0,0.076,1.623-0.096,4.384c-0.183,2.749-0.592,6.69-1.895,11.11    c-2.449,8.596-4.086,19.969-4.742,30c-0.364,5.144-0.486,10.538-0.165,15.758c0.305,5.217,1.026,10.235,1.975,14.562    c1.852,8.685,4.69,14.46,4.711,14.433c-0.012,0.041-3.866-5.365-6.797-14.101c-1.485-4.341-2.741-9.463-3.44-14.828    c-0.716-5.356-0.836-10.953-0.472-16.109c0.673-10.326,3.414-21.875,6.931-30.352c1.752-4.099,2.67-7.853,3.242-10.542    C60.687,27.492,60.872,25.867,60.874,25.868z" fill="#FFFFFF"/></g><g opacity="0.2"><path d="M76.799,27.967c-0.008,0.002,1.158,1.634,3.66,3.861c1.244,1.116,2.814,2.379,4.674,3.691    c1.846,1.332,4.037,2.607,6.389,4.146c4.662,3.039,9.889,7.107,13.816,12.717c1.965,2.78,3.566,5.911,4.672,9.182    c1.109,3.27,1.715,6.666,1.91,9.947c0.432,6.704-0.852,13.932-3.838,20.082c-2.938,6.185-7.336,11.164-11.619,14.752    c-4.299,3.612-8.465,5.95-11.465,7.403c-3.012,1.451-4.881,2.023-4.879,2.025c-0.002,0,1.82-0.84,4.656-2.652    c2.824-1.811,6.682-4.608,10.475-8.515c3.789-3.884,7.453-8.946,9.721-14.738c2.318-5.772,3.133-12.179,2.758-18.109    c-0.176-2.957-0.65-5.983-1.533-8.931c-0.877-2.945-2.154-5.807-3.777-8.44c-3.23-5.302-7.797-9.58-12.082-12.99    c-2.131-1.707-4.25-3.249-5.992-4.811c-1.756-1.54-3.205-3.005-4.336-4.282C77.738,29.753,76.789,27.965,76.799,27.967z" fill="#FFFFFF"/></g><g opacity="0.2"><path d="M72.1,26.917c0.002-0.003,0.688,1.645,2.146,4.266c0.732,1.308,1.66,2.856,2.822,4.522    c1.148,1.671,2.596,3.407,4.199,5.287c3.182,3.737,7.076,8.038,9.928,13.427c1.428,2.674,2.566,5.582,3.334,8.553    c0.771,2.972,1.174,5.994,1.299,8.91c0.232,5.952-0.5,12.235-2.275,18.021c-1.748,5.788-4.549,10.974-7.586,14.971    c-3.031,4.021-6.236,6.884-8.629,8.677c-2.398,1.803-3.98,2.564-3.977,2.564c-0.004,0.002,1.482-1.016,3.623-3.125    c2.137-2.102,4.916-5.319,7.387-9.505c2.49-4.167,4.609-9.302,5.836-14.783c1.252-5.472,1.633-11.282,1.426-16.641    c-0.197-5.345-1.289-10.959-3.594-16.032c-2.248-5.099-5.588-9.612-8.406-13.72c-1.406-2.05-2.699-4.019-3.678-5.879    c-0.988-1.848-1.727-3.534-2.291-4.947C72.539,28.653,72.104,26.916,72.1,26.917z" fill="#FFFFFF"/></g><g opacity="0.2"><path d="M67.127,25.868c0.002-0.001,0.188,1.615,0.746,4.296c0.57,2.68,1.484,6.425,3.229,10.515    c3.516,8.46,6.268,20.007,6.947,30.398c0.377,5.317,0.236,11.001-0.498,16.387c-0.719,5.391-1.996,10.489-3.48,14.785    c-2.939,8.647-6.725,13.905-6.732,13.866c0.025,0.031,2.934-5.891,4.775-14.663c0.947-4.366,1.65-9.408,1.936-14.598    c0.303-5.19,0.162-10.504-0.189-15.492c-0.65-9.968-2.277-21.343-4.727-29.955c-1.309-4.423-1.723-8.379-1.908-11.137    C67.051,27.499,67.129,25.868,67.127,25.868z" fill="#FFFFFF"/></g></g></svg>