<?xml version="1.0" ?><!DOCTYPE svg  PUBLIC '-//W3C//DTD SVG 1.1//EN'  'http://www.w3.org/Graphics/SVG/1.1/DTD/svg11.dtd'><svg enable-background="new 0 0 128 128" height="128px" id="Layer_1" version="1.1" viewBox="0 0 128 128" width="128px" xml:space="preserve" xmlns="http://www.w3.org/2000/svg" xmlns:xlink="http://www.w3.org/1999/xlink"><g><path d="M47.532,118.355c-0.07,2.314-1.859,2.801-3.26,3.426c1.439,0.332,3.186,0.414,4.578,0.037   c-0.096,1.068-0.627,2.574-1.324,3.234c0.575-0.156,2.033-0.289,2.58-0.564c1.229-0.623,1.906-0.938,1.906-0.938   c0.207,0.496,0.743,1.949,0.496,3.475c1.196-0.566,2.637-1.754,2.699-2.738c0.503,1.059,0.782,2.289,1.521,3.039   c0.287-1.045,1.195-2.236,1.977-2.717c0.272,1.301,1.849,3.109,1.819,3.08c-0.058-1.014,1.562-2.326,2.256-2.896   c0.451,1.393,0.864,2.316,1.753,3.215c0.035-1.049,1.594-3.318,2.008-3.404c0.627,1.033,1.756,2.715,2.611,3.113   c0.029-0.9,0.783-2.66,1.252-3.355c0.861,1.432,2.016,2.559,3.246,2.848c-0.363-0.928,0.021-2.074,0.27-3.533   c1.055,1.322,1.936,1.961,3.287,2.451c-0.174-0.812-0.115-2.637,0.111-3.467c1.318,0.834,2.189,1.426,3.512,1.273   c-0.24-0.838-0.57-1.461-0.73-2.924c1.299,0.168,3.016,0.814,4.172,0.604c-1.459-1.176-2.221-2.555-2.84-3.914   c-1.779,0.246-3.723,0.842-5.529,1.23c-1.586,0.342-3.127,0.664-4.723,0.857c-3.373,0.41-6.688,0.746-10.149,0.582   c-2.209-0.104-4.358-0.215-6.545-0.65c-1.828-0.365-4.389,0.182-5.845-1.172L47.532,118.355z" fill="#6D261D"/><path d="M47.532,118.355c-0.071,2.314-1.859,2.801-3.261,3.426c1.44,0.332,3.187,0.414,4.579,0.037   c-0.096,1.068-0.628,2.574-1.324,3.234c0.575-0.156,2.033-0.289,2.58-0.564c1.228-0.623,1.906-0.938,1.906-0.938   c0.207,0.496,0.743,1.949,0.496,3.475c1.196-0.566,2.637-1.754,2.699-2.738c0.503,1.059,0.782,2.289,1.521,3.039   c0.287-1.045,1.195-2.236,1.977-2.717c0.272,1.301,1.849,3.109,1.819,3.08c-0.058-1.014,1.562-2.326,2.256-2.896   c0.451,1.393,0.864,2.316,1.753,3.215c0.034-1.049,1.593-3.318,2.007-3.404c0.628,1.033,1.757,2.715,2.611,3.113   c0.03-0.9,0.784-2.66,1.252-3.355c0.862,1.432,2.016,2.559,3.246,2.848c-0.363-0.928,0.022-2.074,0.27-3.533   c1.055,1.322,1.936,1.961,3.288,2.451c-0.174-0.812-0.115-2.637,0.11-3.467c1.319,0.834,2.19,1.426,3.512,1.273   c-0.239-0.838-0.57-1.461-0.73-2.924c1.299,0.168,3.017,0.814,4.173,0.604c-1.459-1.176-2.221-2.555-2.84-3.914   c-1.78,0.246-3.724,0.842-5.53,1.23c-1.585,0.342-3.127,0.664-4.723,0.857c-3.373,0.41-6.688,0.746-10.148,0.582   c-2.21-0.104-4.358-0.215-6.546-0.65c-1.828-0.365-4.388,0.182-5.844-1.172L47.532,118.355z" fill="#874119"/><path d="M64,121.992c-20.3,0-58-9.682-58-50.936c0-30.47,32.467-37.833,40.44-46.339   c8.632-9.211,7.343-15.988,7.511-19.012l4.248,6.251l5.479-11.964l6.443,10.743l4.283-7.252c0,0-0.64,14.934,8.445,22.821   C92.354,34.557,122,39,122,72.801C122,108.979,87.039,121.992,64,121.992z" fill="#DC7335"/><ellipse cx="56.759" cy="69.824" fill="#E67D41" rx="44.408" ry="35.391"/><ellipse cx="48.335" cy="63.083" fill="#EB8C55" rx="20.448" ry="19.904"/><g opacity="0.2"><path d="M51.201,27.962c0.01-0.001-0.933,1.778-3.193,4.323c-1.124,1.274-2.568,2.734-4.316,4.272    c-1.735,1.559-3.851,3.101-5.979,4.803c-4.277,3.402-8.85,7.669-12.094,12.972c-1.631,2.634-2.916,5.499-3.8,8.454    c-0.888,2.955-1.368,5.998-1.546,8.972c-0.386,6.119,0.504,12.617,2.885,18.402c2.336,5.807,6.031,10.816,9.807,14.646    c3.779,3.852,7.584,6.596,10.359,8.371c2.785,1.777,4.562,2.6,4.559,2.6c0.002-0.002-1.913-0.594-4.976-2.08    c-3.052-1.488-7.273-3.881-11.589-7.555c-4.301-3.646-8.672-8.691-11.537-14.867c-2.92-6.143-4.117-13.268-3.698-19.766    c0.194-3.262,0.792-6.643,1.896-9.903c1.097-3.261,2.688-6.389,4.646-9.17c3.914-5.611,9.139-9.694,13.807-12.742    c2.355-1.543,4.555-2.822,6.404-4.155c1.866-1.315,3.443-2.583,4.691-3.702C50.038,29.605,51.211,27.964,51.201,27.962z" fill="#FFFFFF"/></g><g opacity="0.2"><path d="M55.901,26.913c-0.004-0.002-0.437,1.727-1.555,4.548c-0.562,1.409-1.299,3.09-2.281,4.934    c-0.973,1.856-2.264,3.822-3.665,5.87c-2.812,4.103-6.155,8.611-8.415,13.712c-2.313,5.077-3.42,10.707-3.618,16.085    c-0.214,5.531,0.21,11.426,1.501,16.92c1.265,5.506,3.422,10.602,5.905,14.721c2.472,4.135,5.216,7.297,7.317,9.357    c2.104,2.068,3.552,3.062,3.549,3.061c0.004,0-1.617-0.785-4.053-2.629c-2.428-1.836-5.672-4.76-8.703-8.838    c-3.045-4.049-5.807-9.279-7.516-15.047c-1.734-5.762-2.419-11.953-2.195-17.725c0.123-2.896,0.521-5.906,1.289-8.87    c0.763-2.962,1.893-5.866,3.316-8.54c2.84-5.388,6.733-9.699,9.924-13.442c1.605-1.883,3.059-3.624,4.211-5.298    c1.167-1.669,2.098-3.224,2.832-4.536C55.212,28.567,55.898,26.91,55.901,26.913z" fill="#FFFFFF"/></g><g opacity="0.2"><path d="M60.874,25.864c-0.002,0,0.076,1.623-0.096,4.385c-0.183,2.749-0.592,6.69-1.895,11.111    c-2.449,8.597-4.086,19.971-4.742,30.003c-0.364,5.145-0.486,10.539-0.165,15.76c0.305,5.217,1.026,10.236,1.975,14.564    c1.852,8.686,4.69,14.461,4.711,14.434c-0.012,0.041-3.866-5.365-6.797-14.102c-1.485-4.342-2.741-9.465-3.44-14.83    c-0.716-5.357-0.836-10.955-0.472-16.111c0.673-10.328,3.414-21.878,6.931-30.356c1.752-4.099,2.67-7.854,3.242-10.543    C60.687,27.487,60.872,25.862,60.874,25.864z" fill="#FFFFFF"/></g><g opacity="0.2"><path d="M76.799,27.962c-0.008,0.002,1.158,1.635,3.66,3.861c1.244,1.116,2.814,2.379,4.674,3.692    c1.846,1.332,4.037,2.608,6.389,4.146c4.662,3.04,9.889,7.108,13.816,12.719c1.965,2.781,3.566,5.912,4.672,9.183    c1.109,3.271,1.715,6.667,1.91,9.948c0.432,6.705-0.852,13.934-3.838,20.084c-2.938,6.186-7.336,11.166-11.619,14.754    c-4.299,3.613-8.465,5.951-11.465,7.404c-3.012,1.451-4.881,2.023-4.879,2.025c-0.002,0,1.82-0.84,4.656-2.652    c2.824-1.811,6.682-4.609,10.475-8.516c3.789-3.885,7.453-8.947,9.721-14.74c2.318-5.773,3.133-12.18,2.758-18.111    c-0.176-2.957-0.65-5.984-1.533-8.932c-0.877-2.946-2.154-5.808-3.777-8.441c-3.23-5.303-7.797-9.582-12.082-12.991    c-2.131-1.708-4.25-3.25-5.992-4.812c-1.756-1.54-3.205-3.005-4.336-4.282C77.738,29.749,76.789,27.961,76.799,27.962z" fill="#FFFFFF"/></g><g opacity="0.2"><path d="M72.1,26.913c0.002-0.003,0.688,1.645,2.146,4.266c0.732,1.308,1.66,2.857,2.822,4.522    c1.148,1.671,2.596,3.407,4.199,5.288c3.182,3.737,7.076,8.039,9.928,13.429c1.428,2.674,2.566,5.582,3.334,8.554    c0.771,2.972,1.174,5.995,1.299,8.911c0.232,5.953-0.5,12.236-2.275,18.023c-1.748,5.789-4.549,10.975-7.586,14.973    c-3.031,4.021-6.236,6.885-8.629,8.678c-2.398,1.803-3.98,2.564-3.977,2.564c-0.004,0.002,1.482-1.016,3.623-3.125    c2.137-2.102,4.916-5.32,7.387-9.506c2.49-4.168,4.609-9.303,5.836-14.785c1.252-5.473,1.633-11.283,1.426-16.643    c-0.197-5.346-1.289-10.96-3.594-16.034c-2.248-5.099-5.588-9.613-8.406-13.722c-1.406-2.051-2.699-4.02-3.678-5.88    c-0.988-1.848-1.727-3.535-2.291-4.948C72.539,28.648,72.104,26.911,72.1,26.913z" fill="#FFFFFF"/></g><g opacity="0.2"><path d="M67.127,25.864c0.002-0.001,0.188,1.615,0.746,4.297c0.57,2.68,1.484,6.426,3.229,10.516    c3.516,8.461,6.268,20.01,6.947,30.402c0.377,5.318,0.236,11.002-0.498,16.389c-0.719,5.391-1.996,10.49-3.48,14.787    c-2.939,8.648-6.725,13.906-6.732,13.867c0.025,0.031,2.934-5.891,4.775-14.664c0.947-4.367,1.65-9.41,1.936-14.6    c0.303-5.191,0.162-10.506-0.189-15.494c-0.65-9.97-2.277-21.345-4.727-29.958c-1.309-4.424-1.723-8.38-1.908-11.138    C67.051,27.495,67.129,25.863,67.127,25.864z" fill="#FFFFFF"/></g></g></svg>