<svg width="50" height="50" xmlns="http://www.w3.org/2000/svg"><g transform="translate(0,-50)"><path d="m17.248 65.003q-1.2507-2.0505-1.2507-4.551 0-3.7008 2.6516-6.3014 2.6516-2.6506 6.3537-2.6506 3.7522 0 6.3537 2.6506 2.6516 2.6006 2.6516 6.3014 0 2.5006-1.2007 4.551-7.8046 4.9511-15.559 0m17.66 1.3503 10.956 6.2514q1.9011 1.0502 2.4514 3.1007 0.55032 2.0505-0.55032 3.9009l-0.35021 0.60014q-1.0506 1.8504-3.1018 2.4005-2.1513 0.55012-4.0024-0.50011l-6.1536-3.5508 0.15009 0.20005 0.80047 1.7004 3.352 12.353q0.55032 2.0505-0.60035 3.9509-1.0506 1.8004-3.1018 2.4005l-0.65038 0.15003q-2.1012 0.55013-4.0024-0.50011-1.8511-1.1002-2.4014-3.1507l-1.8011-6.7015h-1.8011l-1.8011 6.7015q-0.55032 2.0505-2.4514 3.1507-1.8511 1.0502-3.9023 0.50011l-0.65038-0.15003q-2.1513-0.60014-3.2019-2.4005-1.0506-1.9004-0.50029-3.9509l3.352-12.353q0.25015-0.95022 0.80047-1.7004l0.15009-0.20005-6.2036 3.5508q-1.9011 1.0502-3.9523 0.50011-2.1012-0.55013-3.2019-2.4005l-0.35021-0.60014q-1.0506-1.8504-0.50029-3.9009 0.55032-2.0505 2.4514-3.1007l11.207-6.3514h0.05003q9.7057 7.2016 19.511 0.10002" fill="#464444"/></g></svg>