<?xml version="1.0" ?><svg viewBox="0 0 64 64" xmlns="http://www.w3.org/2000/svg"><defs><style>.cls-1{fill:#49b200;}.cls-2{fill:#51c740;}.cls-3{fill:#5bad4e;}.cls-4{fill:none;stroke:#000;stroke-linejoin:round;stroke-width:2px;}</style></defs><title/><g data-name="Layer 1 copy" id="Layer_1_copy"><g data-name="&lt;Group&gt;" id="_Group_"><path class="cls-1" d="M36.85,24.16A28.8,28.8,0,0,0,19,18c-.25,0-.51,0-.76.02v-.01A15.008,15.008,0,0,1,45.75,18l.1.24A28.84,28.84,0,0,0,36.85,24.16Z"/><path class="cls-1" d="M18.24,18.02A28.641,28.641,0,0,0,4.91,21.66,29,29,0,0,1,56.2,16.02a28.73,28.73,0,0,0-10.35,2.22l-.1-.24a15.008,15.008,0,0,0-27.51.01Z"/><path class="cls-2" d="M61,32A28.941,28.941,0,0,1,46.1,57.33c.13-.33.25-.65.35-.99A28.594,28.594,0,0,0,48,47,28.9,28.9,0,0,0,36.85,24.16,28.986,28.986,0,0,1,56.2,16.02,28.861,28.861,0,0,1,61,32Z"/><path class="cls-3" d="M32,61A28.991,28.991,0,0,1,4.91,21.66a28.641,28.641,0,0,1,13.33-3.64c.25-.02.51-.02.76-.02A29.03,29.03,0,0,1,48,47a28.594,28.594,0,0,1-1.55,9.34c-.1.34-.22.66-.35.99v.01a28.914,28.914,0,0,1-13.3,3.64C32.54,60.99,32.27,61,32,61Z"/><path class="cls-2" d="M37.546,24.878l-1.392-1.436a30,30,0,0,1,18.189-8.317,28,28,0,0,0-48.5,6.892L3.976,21.3a30,30,0,0,1,53.058-5.836,1,1,0,0,1-.806,1.552,27.99,27.99,0,0,0-18.682,7.858Z"/><path class="cls-2" d="M37.467,23.373h0A29.64,29.64,0,0,0,19,17c-.276,0-.562,0-.783.02A29.823,29.823,0,0,0,4.423,20.787a.993.993,0,0,0-.446.516A29.989,29.989,0,0,0,32,62c.283,0,.565-.01.837-.021l-.075-2c-.247.009-.505.019-.762.019A27.992,27.992,0,0,1,5.716,22.358a27.883,27.883,0,0,1,12.6-3.341C18.542,19,18.775,19,19,19a27.664,27.664,0,0,1,17.233,5.947l.617-.787-.615.788a27.962,27.962,0,0,1,9.256,31.11c-.092.31-.2.6-.322.906l1.862.732c.14-.358.27-.7.365-1.03a29.958,29.958,0,0,0-9.929-33.293Z"/><path class="cls-2" d="M32.827,61.98l-.055-2a27.73,27.73,0,0,0,12.736-3.456c.034-.024.069-.047.106-.068a27.988,27.988,0,0,0,9.752-39.885,1,1,0,0,1,.8-1.55c.272-.011.554-.021.837-.021v.49l.034-.022A29.987,29.987,0,0,1,46.7,58.143a1.02,1.02,0,0,1-.109.071A30.121,30.121,0,0,1,32.827,61.98Z"/><path class="cls-2" d="M19.156,18.411l-1.832-.8A16.008,16.008,0,0,1,46.667,17.6l-1.834.8a14.008,14.008,0,0,0-25.677.012Z"/><path class="cls-1" d="M45.3,58.17l-.67-.02A37.008,37.008,0,0,1,9.006,25.107l1.988-.214a35.011,35.011,0,0,0,33.7,31.258l.667.019Z"/><path class="cls-1" d="M18,43H16V40.49a21.35,21.35,0,0,1,6.293-15.2l1.414,1.414A19.366,19.366,0,0,0,18,40.49Z"/><path class="cls-1" d="M31.12,54.475l-.14-.26A12.508,12.508,0,0,1,34.4,38.2l1.2,1.6a10.5,10.5,0,0,0-2.868,13.454l.147.271Z"/><path class="cls-3" d="M46.826,57.563l-1.652-1.126,4.541-6.632A24.983,24.983,0,0,0,51.6,24.934l1.8-.868a26.992,26.992,0,0,1-2.035,26.869Z"/><rect class="cls-2" height="6" width="2" x="31" y="15"/></g></g><g data-name="Layer 1 copy 2" id="Layer_1_copy_2"><path class="cls-4" d="M32.8,60.98c-.267.007-.533.02-.8.02A29,29,0,0,1,4.907,21.655"/><path class="cls-4" d="M46.1,57.337a29.022,29.022,0,0,0-9.25-33.181"/><path class="cls-4" d="M36.854,24.156A28.906,28.906,0,0,1,56.2,16.02,29,29,0,0,0,4.907,21.655a28.981,28.981,0,0,1,31.947,2.5Z"/><path class="cls-4" d="M36.854,24.156a28.981,28.981,0,0,0-31.947-2.5A29,29,0,0,0,32,61c.269,0,.535-.013.8-.02"/><path class="cls-4" d="M57,16c-.269,0-.535.013-.8.02A28.991,28.991,0,0,1,32.8,60.98"/><path class="cls-4" d="M18.244,18.01A15.006,15.006,0,0,1,45.752,18"/><path class="cls-4" d="M45.333,57.167l-.671-.021A35.991,35.991,0,0,1,10,25h0"/><path class="cls-4" d="M23,26h0a20.484,20.484,0,0,0-6,14.485V43"/><path class="cls-4" d="M35,39h0a11.468,11.468,0,0,0-3.144,14.742L32,54"/><path class="cls-4" d="M46,57l4.539-6.634A25.906,25.906,0,0,0,52.5,24.5h0"/><line class="cls-4" x1="32" x2="32" y1="15" y2="21"/></g></svg>