<svg width="50" height="50" xmlns="http://www.w3.org/2000/svg"><g transform="translate(10.593,-52.1186)"><path d="m25.607 77.119q0 4.6-3.3 7.9t-7.9 3.3q-4.7 0-7.95-3.3-3.3-3.3-3.3-7.9t3.3-7.9q3.25-3.3 7.95-3.3 4.6 0 7.9 3.3t3.3 7.9m-1.45-9.8q-4.05-4.05-9.75-4.05-5.8 0-9.8 4.05-4.05 4.1-4.05 9.8t4.05 9.8q4 4.05 9.8 4.05 5.7 0 9.75-4.05 4.1-4.1 4.1-9.8t-4.1-9.8m5.05-5.05q6.2 6.2 6.2 14.85 0 8.7-6.2 14.85-6.1 6.15-14.8 6.15-8.7 0-14.85-6.15-6.15-6.15-6.15-14.85 0-8.65 6.15-14.85 6.15-6.15 14.85-6.15 8.7 0 14.8 6.15" fill="#e8af2a"/><path d="m24.157 67.319q4.1 4.1 4.1 9.8t-4.1 9.8q-4.05 4.05-9.75 4.05-5.8 0-9.8-4.05-4.05-4.1-4.05-9.8t4.05-9.8q4-4.05 9.8-4.05 5.7 0 9.75 4.05m1.45 9.8q0-4.6-3.3-7.9t-7.9-3.3q-4.7 0-7.95 3.3-3.3 3.3-3.3 7.9t3.3 7.9q3.25 3.3 7.95 3.3 4.6 0 7.9-3.3t3.3-7.9" fill="#464444"/><path d="m28.257 77.119q0-5.7-4.1-9.8-4.05-4.05-9.75-4.05-5.8 0-9.8 4.05-4.05 4.1-4.05 9.8t4.05 9.8q4 4.05 9.8 4.05 5.7 0 9.75-4.05 4.1-4.1 4.1-9.8m-5.95-7.9q3.3 3.3 3.3 7.9t-3.3 7.9-7.9 3.3q-4.7 0-7.95-3.3-3.3-3.3-3.3-7.9t3.3-7.9q3.25-3.3 7.95-3.3 4.6 0 7.9 3.3m13.1 7.9q0 8.7-6.2 14.85-6.1 6.15-14.8 6.15-8.7 0-14.85-6.15-6.15-6.15-6.15-14.85 0-8.65 6.15-14.85 6.15-6.15 14.85-6.15 8.7 0 14.8 6.15 6.2 6.2 6.2 14.85" fill="#e8af2a"/><path d="m28.257 77.119q0 5.7-4.1 9.8-4.05 4.05-9.75 4.05-5.8 0-9.8-4.05-4.05-4.1-4.05-9.8t4.05-9.8q4-4.05 9.8-4.05 5.7 0 9.75 4.05 4.1 4.1 4.1 9.8m-5.95-7.9q-3.3-3.3-7.9-3.3-4.7 0-7.95 3.3-3.3 3.3-3.3 7.9t3.3 7.9q3.25 3.3 7.95 3.3 4.6 0 7.9-3.3t3.3-7.9-3.3-7.9" fill="#464444"/></g></svg>